<?xml version="1.0" standalone="no"?>
<!DOCTYPE svg PUBLIC "-//W3C//DTD SVG 20010904//EN"
 "http://www.w3.org/TR/2001/REC-SVG-20010904/DTD/svg10.dtd">
<svg version="1.0" xmlns="http://www.w3.org/2000/svg"
 width="128.000000pt" height="128.000000pt" viewBox="0 0 128.000000 128.000000"
 preserveAspectRatio="xMidYMid meet">

<g transform="translate(0.000000,128.000000) scale(0.100000,-0.100000)"
fill="#000000" stroke="none">
<path d="M513 1105 c-120 -33 -243 -127 -293 -225 -24 -48 -60 -146 -60 -165
0 -12 34 -12 175 1 l60 5 29 54 c82 158 296 182 417 48 20 -22 40 -47 45 -55
8 -11 28 -12 124 -4 63 5 117 11 119 12 2 2 -10 32 -27 67 -61 123 -171 217
-300 257 -76 24 -210 26 -289 5z"/>
<path d="M570 771 c-108 -57 -108 -212 0 -275 47 -28 130 -28 167 0 43 32 65
68 70 117 7 59 -25 128 -71 157 -43 26 -119 27 -166 1z"/>
<path d="M1125 714 c-5 -1 -53 -6 -106 -9 l-97 -7 -4 -71 c-2 -51 -11 -86 -28
-120 -85 -169 -307 -198 -433 -57 -46 50 -63 88 -73 159 l-7 52 -106 -7 c-59
-4 -109 -12 -113 -18 -20 -30 24 -191 72 -264 116 -181 341 -270 545 -217 137
36 263 136 322 255 40 81 52 136 53 227 0 70 -4 83 -25 77z"/>
</g>
</svg>
